<svg width="24" height="25" viewBox="0 0 24 25" fill="none" xmlns="http://www.w3.org/2000/svg">
<path fill-rule="evenodd" clip-rule="evenodd" d="M3 8.5V16C3 18.7614 5.23858 21 8 21H15.5C18.2614 21 20.5 18.7614 20.5 16V8.5C20.5 5.73858 18.2614 3.5 15.5 3.5H8C5.23858 3.5 3 5.73858 3 8.5Z" stroke="#3D3734" stroke-width="1.5" stroke-linecap="round" stroke-linejoin="round"/>
<path d="M14.75 4.75C14.75 5.16421 15.0858 5.5 15.5 5.5C15.9142 5.5 16.25 5.16421 16.25 4.75H14.75ZM16.25 1C16.25 0.585786 15.9142 0.25 15.5 0.25C15.0858 0.25 14.75 0.585786 14.75 1H16.25ZM7.25 4.75C7.25 5.16421 7.58579 5.5 8 5.5C8.41421 5.5 8.75 5.16421 8.75 4.75H7.25ZM8.75 1C8.75 0.585786 8.41421 0.25 8 0.25C7.58579 0.25 7.25 0.585786 7.25 1H8.75ZM7.25 10.1069C7.25 10.5211 7.58579 10.8569 8 10.8569C8.41421 10.8569 8.75 10.5211 8.75 10.1069H7.25ZM11.75 10.1069L12.4987 10.1515C12.4996 10.1366 12.5 10.1218 12.5 10.1069H11.75ZM10.9547 11.7086L11.4427 12.2781L11.4427 12.2781L10.9547 11.7086ZM9.25 12.2494L9.17945 11.5027C8.79428 11.5391 8.5 11.8625 8.5 12.2494C8.5 12.6363 8.79428 12.9597 9.17945 12.996L9.25 12.2494ZM10.9547 12.7901L11.4427 12.2206L10.9547 12.7901ZM11.75 14.3919H12.5C12.5 14.377 12.4996 14.3621 12.4987 14.3473L11.75 14.3919ZM8.75 14.3919C8.75 13.9777 8.41421 13.6419 8 13.6419C7.58579 13.6419 7.25 13.9777 7.25 14.3919H8.75ZM13.762 9.00177C13.4474 9.27131 13.411 9.74478 13.6805 10.0593C13.9501 10.3738 14.4235 10.4103 14.738 10.1407L13.762 9.00177ZM15.5 8.5H16.25C16.25 8.20711 16.0795 7.94102 15.8134 7.81863C15.5473 7.69623 15.2343 7.73993 15.012 7.93052L15.5 8.5ZM14.75 16C14.75 16.4142 15.0858 16.75 15.5 16.75C15.9142 16.75 16.25 16.4142 16.25 16H14.75ZM16.25 4.75V1H14.75V4.75H16.25ZM8.75 4.75V1H7.25V4.75H8.75ZM8.75 10.1069C8.75 9.81869 8.86419 9.63258 9.04042 9.49833C9.23751 9.34819 9.5377 9.25 9.875 9.25C10.2123 9.25 10.5125 9.34819 10.7096 9.49833C10.8858 9.63258 11 9.81869 11 10.1069H12.5C12.5 9.32381 12.1454 8.70648 11.6185 8.30511C11.1125 7.91962 10.4752 7.75 9.875 7.75C9.2748 7.75 8.63749 7.91962 8.13145 8.30511C7.60456 8.70648 7.25 9.32381 7.25 10.1069H8.75ZM11.0013 10.0623C10.9765 10.4789 10.7835 10.8676 10.4666 11.1392L11.4427 12.2781C12.0685 11.7418 12.4497 10.9742 12.4987 10.1515L11.0013 10.0623ZM10.4666 11.1392C10.1497 11.4108 9.73606 11.542 9.32055 11.5027L9.17945 12.996C10 13.0736 10.8169 12.8145 11.4427 12.2781L10.4666 11.1392ZM9.32055 12.996C9.73606 12.9568 10.1497 13.088 10.4666 13.3596L11.4427 12.2206C10.8169 11.6843 10 11.4252 9.17945 11.5027L9.32055 12.996ZM10.4666 13.3596C10.7835 13.6312 10.9765 14.0198 11.0013 14.4365L12.4987 14.3473C12.4497 13.5245 12.0685 12.757 11.4427 12.2206L10.4666 13.3596ZM11 14.3919C11 14.6801 10.8858 14.8662 10.7096 15.0004C10.5125 15.1506 10.2123 15.2487 9.875 15.2487C9.5377 15.2487 9.23751 15.1506 9.04042 15.0004C8.86419 14.8662 8.75 14.6801 8.75 14.3919H7.25C7.25 15.1749 7.60456 15.7923 8.13145 16.1936C8.63749 16.5791 9.2748 16.7487 9.875 16.7487C10.4752 16.7487 11.1125 16.5791 11.6185 16.1936C12.1454 15.7923 12.5 15.1749 12.5 14.3919H11ZM14.738 10.1407L15.988 9.06948L15.012 7.93052L13.762 9.00177L14.738 10.1407ZM14.75 8.5V16H16.25V8.5H14.75Z" fill="#3D3734"/>
</svg>
