<svg width="35" height="35" viewBox="0 0 35 35" fill="none" xmlns="http://www.w3.org/2000/svg">
<path fill-rule="evenodd" clip-rule="evenodd" d="M17.5 26.25C22.3325 26.25 26.25 22.3325 26.25 17.5C26.25 12.6675 22.3325 8.75 17.5 8.75C12.6675 8.75 8.75 12.6675 8.75 17.5C8.75 22.3325 12.6675 26.25 17.5 26.25ZM17.5 23.3333C20.7216 23.3333 23.3333 20.7216 23.3333 17.5C23.3333 14.2783 20.7216 11.6667 17.5 11.6667C14.2783 11.6667 11.6667 14.2783 11.6667 17.5C11.6667 20.7216 14.2783 23.3333 17.5 23.3333Z" fill="white"/>
<path d="M26.2498 7.29199C25.4444 7.29199 24.7915 7.94492 24.7915 8.75033C24.7915 9.55573 25.4444 10.2087 26.2498 10.2087C27.0553 10.2087 27.7082 9.55573 27.7082 8.75033C27.7082 7.94492 27.0553 7.29199 26.2498 7.29199Z" fill="white"/>
<path fill-rule="evenodd" clip-rule="evenodd" d="M2.41219 6.2356C1.4585 8.10732 1.4585 10.5576 1.4585 15.458V19.5413C1.4585 24.4418 1.4585 26.8921 2.41219 28.7637C3.25108 30.4102 4.58965 31.7488 6.23608 32.5876C8.10781 33.5413 10.558 33.5413 15.4585 33.5413H19.5418C24.4423 33.5413 26.8926 33.5413 28.7642 32.5876C30.4106 31.7488 31.7492 30.4102 32.5881 28.7637C33.5418 26.8921 33.5418 24.4418 33.5418 19.5413V15.458C33.5418 10.5576 33.5418 8.10732 32.5881 6.2356C31.7492 4.58917 30.4106 3.25059 28.7642 2.4117C26.8926 1.45801 24.4423 1.45801 19.5418 1.45801H15.4585C10.558 1.45801 8.10781 1.45801 6.23608 2.4117C4.58965 3.25059 3.25108 4.58917 2.41219 6.2356ZM19.5418 4.37467H15.4585C12.9601 4.37467 11.2618 4.37695 9.94903 4.4842C8.6703 4.58867 8.01639 4.77803 7.56022 5.01046C6.46261 5.56973 5.57022 6.46212 5.01095 7.55973C4.77852 8.0159 4.58916 8.66982 4.48468 9.94854C4.37744 11.2613 4.37516 12.9596 4.37516 15.458V19.5413C4.37516 22.0398 4.37744 23.738 4.48468 25.0508C4.58916 26.3296 4.77852 26.9835 5.01095 27.4397C5.57022 28.5372 6.46261 29.4296 7.56022 29.9888C8.01639 30.2213 8.6703 30.4107 9.94903 30.5152C11.2618 30.6223 12.9601 30.6247 15.4585 30.6247H19.5418C22.0402 30.6247 23.7385 30.6223 25.0513 30.5152C26.3301 30.4107 26.984 30.2213 27.4402 29.9888C28.5377 29.4296 29.4301 28.5372 29.9893 27.4397C30.2218 26.9835 30.4112 26.3296 30.5156 25.0508C30.6228 23.738 30.6252 22.0398 30.6252 19.5413V15.458C30.6252 12.9596 30.6228 11.2613 30.5156 9.94854C30.4112 8.66982 30.2218 8.0159 29.9893 7.55973C29.4301 6.46212 28.5377 5.56973 27.4402 5.01046C26.984 4.77803 26.3301 4.58867 25.0513 4.4842C23.7385 4.37695 22.0402 4.37467 19.5418 4.37467Z" fill="white"/>
</svg>
