<svg width="40" height="40" viewBox="0 0 40 40" fill="none" xmlns="http://www.w3.org/2000/svg">
<path fill-rule="evenodd" clip-rule="evenodd" d="M36.1746 33.7975L27.2086 24.8315C28.9585 22.5756 30.0002 19.7428 30.0002 16.6667C30.0002 9.30288 24.0306 3.33334 16.6668 3.33334C9.30303 3.33334 3.3335 9.30288 3.3335 16.6667C3.3335 24.0305 9.30303 30 16.6668 30C19.7429 30 22.5757 28.9583 24.8317 27.2085L33.7976 36.1744C34.454 36.8308 35.5182 36.8308 36.1746 36.1744C36.8309 35.518 36.8309 34.4538 36.1746 33.7975ZM26.6668 16.6667C26.6668 22.1895 22.1897 26.6667 16.6668 26.6667C11.144 26.6667 6.66683 22.1895 6.66683 16.6667C6.66683 11.1438 11.144 6.66668 16.6668 6.66668C22.1897 6.66668 26.6668 11.1438 26.6668 16.6667ZM21.6668 18.3333H18.3335V21.6667C18.3335 22.5872 17.5873 23.3333 16.6668 23.3333C15.7464 23.3333 15.0002 22.5872 15.0002 21.6667V18.3333H11.6668C10.7464 18.3333 10.0002 17.5872 10.0002 16.6667C10.0002 15.7462 10.7464 15 11.6668 15H15.0002V11.6667C15.0002 10.7462 15.7464 10 16.6668 10C17.5873 10 18.3335 10.7462 18.3335 11.6667V15H21.6668C22.5873 15 23.3335 15.7462 23.3335 16.6667C23.3335 17.5872 22.5873 18.3333 21.6668 18.3333V18.3333Z" fill="white"/>
</svg>
