<svg width="35" height="35" viewBox="0 0 35 35" fill="none" xmlns="http://www.w3.org/2000/svg">
<path d="M32.0397 26.7311C32.0397 27.2561 31.923 27.7957 31.6751 28.3207C31.4272 28.8457 31.1063 29.3415 30.6834 29.8082C29.9688 30.5957 29.1813 31.1644 28.2917 31.529C27.4167 31.8936 26.4688 32.0832 25.448 32.0832C23.9605 32.0832 22.3709 31.7332 20.6938 31.0186C19.0167 30.304 17.3397 29.3415 15.6772 28.1311C14.0001 26.9061 12.4105 25.5498 10.8938 24.0478C9.39175 22.5311 8.0355 20.9415 6.82508 19.279C5.62925 17.6165 4.66675 15.954 3.96675 14.3061C3.26675 12.6436 2.91675 11.054 2.91675 9.53734C2.91675 8.54567 3.09175 7.59775 3.44175 6.72275C3.79175 5.83317 4.34591 5.0165 5.11883 4.28734C6.05216 3.36859 7.073 2.9165 8.15216 2.9165C8.5605 2.9165 8.96883 3.004 9.33341 3.179C9.71258 3.354 10.048 3.6165 10.3105 3.99567L13.6938 8.76442C13.9563 9.129 14.1459 9.46442 14.2772 9.78525C14.4084 10.0915 14.4813 10.3978 14.4813 10.6748C14.4813 11.0248 14.3792 11.3748 14.1751 11.7103C13.9855 12.0457 13.7084 12.3957 13.3584 12.7457L12.2501 13.8978C12.0897 14.0582 12.0167 14.2478 12.0167 14.4811C12.0167 14.5978 12.0313 14.6998 12.0605 14.8165C12.1042 14.9332 12.148 15.0207 12.1772 15.1082C12.4397 15.5894 12.8917 16.2165 13.5334 16.9748C14.1897 17.7332 14.8897 18.5061 15.648 19.279C16.4355 20.0519 17.1938 20.7665 17.9667 21.4228C18.7251 22.0644 19.3522 22.5019 19.848 22.7644C19.9209 22.7936 20.0084 22.8373 20.1105 22.8811C20.2272 22.9248 20.3438 22.9394 20.4751 22.9394C20.723 22.9394 20.9126 22.8519 21.073 22.6915L22.1813 21.5978C22.5459 21.2332 22.8959 20.9561 23.2313 20.7811C23.5667 20.5769 23.9022 20.4748 24.2667 20.4748C24.5438 20.4748 24.8355 20.5332 25.1563 20.6644C25.4772 20.7957 25.8126 20.9853 26.1772 21.2332L31.0042 24.6603C31.3834 24.9228 31.6459 25.229 31.8063 25.5936C31.9522 25.9582 32.0397 26.3228 32.0397 26.7311Z" stroke="white" stroke-width="1.8" stroke-miterlimit="10"/>
<path d="M26.9792 13.1252C26.9792 12.2502 26.2937 10.9085 25.2729 9.81475C24.3396 8.8085 23.1 8.021 21.875 8.021" stroke="white" stroke-width="1.8" stroke-linecap="round" stroke-linejoin="round"/>
<path d="M32.0833 13.1248C32.0833 7.48109 27.5187 2.9165 21.875 2.9165" stroke="white" stroke-width="1.8" stroke-linecap="round" stroke-linejoin="round"/>
</svg>
