<svg width="200" height="129" viewBox="0 0 200 129" fill="none" xmlns="http://www.w3.org/2000/svg">
<path d="M17.2818 105.675C20.069 105.142 24.8456 106.756 26.0635 113.09C27.0987 118.473 25.3576 122.91 19.9097 123.953L19.3556 121.071C23.4171 120.163 24.2701 116.913 23.5759 113.303C22.9791 110.199 20.6731 108.112 17.7908 108.664C14.4968 109.294 14.3492 112.113 14.9277 115.122C15.0495 115.755 15.2578 116.667 15.3808 117.136L12.9102 117.609C12.8761 117.09 12.6813 116.077 12.5838 115.57C12.0358 112.72 10.6581 110.849 7.58575 111.437C4.79846 111.97 4.41947 114.44 4.90663 116.973C5.54602 120.298 7.24777 121.975 10.5772 121.7L11.1313 124.581C6.24867 125.318 3.33732 122.132 2.41781 117.351C1.58355 113.012 2.76906 109.272 7.01334 108.46C9.38887 108.006 11.7058 109.467 12.6413 111.258L12.7363 111.24C12.7341 108.154 14.8112 106.148 17.2818 105.675Z" fill="#FDAE18"/>
<path d="M23.2853 84.1069L25.4045 84.3044C25.575 84.9033 25.6079 85.5865 25.5506 86.1965C25.4057 87.7376 24.4603 88.4916 22.884 88.3771C24.5603 90.1851 25.194 92.0579 24.9526 94.6264C24.6448 97.9013 22.6565 99.7564 19.7667 99.4871C16.8127 99.2118 15.2629 97.0917 15.1494 93.1298C15.039 89.1358 15.2621 87.7963 13.0144 87.5869C11.2484 87.4223 10.1614 88.6489 9.93208 91.089C9.69367 93.6254 10.5011 95.0286 12.9172 95.5129L12.6668 98.1777C9.14382 97.7522 7.29817 94.9892 7.69954 90.719C7.90777 88.5037 8.66378 86.6632 9.79388 85.6674C11.0263 84.6163 12.7251 84.807 14.2021 84.9446C16.6745 85.175 19.1027 85.5308 21.5751 85.7612C22.7953 85.8749 23.2398 85.6249 23.3183 84.7901C23.3424 84.5333 23.3224 84.4018 23.2853 84.1069ZM16.4501 87.9071C17.1241 89.0063 17.0556 90.425 17.1014 91.66C17.1712 93.6745 17.1425 96.3924 19.8075 96.6408C21.5093 96.7994 22.6866 95.646 22.8797 93.5911C23.1212 91.0226 21.5875 88.3858 19.4683 88.1883L16.4501 87.9071Z" fill="#FDAE18"/>
<path d="M32.0872 65.2986L30.8846 68.5672L21.0992 71.441L22.5895 74.7682L27.8889 76.7083L26.9424 79.2807L11.3165 73.5604L12.2631 70.9879L19.7126 73.7151L14.8912 63.8455L16.1607 60.3954L19.9918 68.9408L32.0872 65.2986Z" fill="#FDAE18"/>
<path d="M41.0651 48.3084L42.8108 49.526C42.6628 50.1304 42.3534 50.7403 42.0017 51.242C41.1132 52.5095 39.9177 52.698 38.6031 51.8205C39.1668 54.2187 38.7914 56.1586 37.3106 58.2711C35.4225 60.9646 32.775 61.5951 30.3945 59.9349C27.961 58.2377 27.6618 55.6308 29.5234 52.1325C31.4034 48.6078 32.2602 47.5541 30.4087 46.2628C28.9539 45.2482 27.4014 45.7775 25.9946 47.7843C24.5323 49.8704 24.5404 51.4881 26.4026 53.1013L24.8662 55.293C22.0121 53.1846 21.7737 49.873 24.2356 46.361C25.5129 44.539 27.0811 43.313 28.5569 43.0055C30.1491 42.7006 31.5325 43.7047 32.7492 44.5532C34.7859 45.9737 36.7221 47.4813 38.7588 48.9017C39.7639 49.6027 40.2744 49.6049 40.7557 48.9183C40.9038 48.7071 40.9514 48.583 41.0651 48.3084ZM33.2389 48.2367C33.2814 49.5244 32.5198 50.7232 31.9487 51.8188C31.0126 53.6036 29.6429 55.9509 31.8383 57.482C33.2402 58.4597 34.835 58.0386 36.0196 56.3486C37.5005 54.2361 37.471 51.1882 35.7253 49.9707L33.2389 48.2367Z" fill="#FDAE18"/>
<path d="M38.2681 37.5455C35.8001 34.2678 37.6255 31.1444 40.1781 28.969C42.7798 26.7518 45.8418 25.9643 47.8558 28.3154C49.0936 29.7604 48.9474 31.6222 48.1054 32.7211L48.1473 32.7701C49.5142 31.9865 51.6087 31.854 53.287 33.8133C55.6367 36.5563 54.2554 40.1486 51.58 42.4285C48.2666 45.2523 44.8657 45.3965 42.3688 42.779L44.4796 40.9801C46.1548 42.6879 48.2426 42.3492 50.1079 40.7595C52.096 39.0653 52.281 37.001 51.1691 35.7029C50.0782 34.4294 48.646 34.2941 46.707 35.9465L44.9644 37.4316L43.5168 35.7418L44.9158 34.5495C46.3885 33.2945 47.1086 31.7062 45.8289 30.2123C45.0317 29.2816 43.3193 29.2157 41.6012 30.6799C40.104 31.9558 39.0821 33.8858 40.3789 35.7467L38.2681 37.5455Z" fill="#FDAE18"/>
<path d="M73.5277 26.2135L74.4621 28.1258C74.0391 28.5824 73.4726 28.9654 72.9215 29.2332C71.5294 29.91 70.393 29.4942 69.6703 28.0886C68.9981 30.4592 67.7279 31.9731 65.4077 33.1009C62.4494 34.539 59.8294 33.8047 58.5553 31.197C57.2528 28.5313 58.2575 26.1067 61.5835 23.952C64.9385 21.7833 66.1991 21.278 65.2081 19.2498C64.4294 17.6562 62.8156 17.3651 60.6114 18.4365C58.3202 19.5503 57.5416 20.9686 58.3855 23.2835L55.9783 24.4537C54.508 21.2242 55.908 18.213 59.7654 16.3378C61.7666 15.365 63.7326 15.0548 65.1717 15.5026C66.7113 16.0091 67.4327 17.5589 68.0839 18.8917C69.174 21.1227 70.1339 23.3812 71.224 25.6122C71.762 26.7132 72.2071 26.963 72.9611 26.5965C73.1932 26.4837 73.295 26.3983 73.5277 26.2135ZM66.7229 22.3501C66.1346 23.4966 64.8868 24.1749 63.8554 24.8556C62.1705 25.9615 59.8334 27.3486 61.0084 29.7535C61.7587 31.2891 63.357 31.6954 65.2132 30.7931C67.5335 29.6652 68.988 26.986 68.0537 25.0737L66.7229 22.3501Z" fill="#FDAE18"/>
<path d="M89.1966 10.3591L83.3548 11.5694L86.2541 25.4922L83.57 26.0483L80.6707 12.1255L74.8288 13.3358L74.3358 10.968L88.7036 7.99129L89.1966 10.3591Z" fill="#FDAE18"/>
<path d="M111.292 19.4212C111.17 22.5469 109.059 24.5298 105.805 24.4026L97.0078 24.0587L97.6557 7.43123L100.395 7.53832L100.147 13.8864L106.076 14.1182C109.331 14.2454 111.415 16.2633 111.292 19.4212ZM105.115 16.4365L100.056 16.2387L99.841 21.749L104.9 21.9468C107.156 22.0349 108.387 21.0826 108.456 19.3103C108.525 17.538 107.403 16.526 105.115 16.4365Z" fill="#FDAE18"/>
<path d="M130.709 30.5555L128.261 29.3212L135.785 14.479L148.109 20.6939L140.585 35.5361L138.138 34.3019L144.568 21.617L137.139 17.8706L130.709 30.5555Z" fill="#FDAE18"/>
<path d="M159.489 29.0039L157.889 30.7307C160.24 30.0911 162.163 30.7675 163.965 32.4287C167.379 35.5763 167.258 40.0254 163.597 43.9757C159.937 47.9259 155.458 48.4897 152.114 45.4077C150.313 43.7465 149.604 41.9967 149.876 39.6157L143.936 46.026L141.92 44.168L157.592 27.2553L159.489 29.0039ZM162.101 33.824C159.753 31.6601 156.665 32.1463 153.925 35.1031C151.185 38.0599 150.99 41.2128 153.361 43.3986C155.661 45.5188 158.771 45.0089 161.489 42.0758C164.229 39.119 164.472 36.0098 162.101 33.824Z" fill="#FDAE18"/>
<path d="M179.738 52.0635C182.359 56.3577 181.159 60.5196 176.445 63.3815C171.621 66.3104 167.281 65.5126 164.643 61.1908C161.989 56.8416 163.222 52.5469 167.908 49.7017C172.594 46.8565 177.118 47.7693 179.738 52.0635ZM177.747 53.1968C176.068 50.4441 172.832 50.032 169.441 52.0906C165.94 54.2161 164.898 57.1505 166.645 60.0133C168.325 62.766 171.428 63.1457 174.928 61.0202C178.319 58.9616 179.427 55.9495 177.747 53.1968Z" fill="#FDAE18"/>
<path d="M180.164 85.1075C176.243 85.3544 173.667 83.5073 172.582 79.7254C171.231 75.0137 173.523 71.308 178.733 69.8215C183.912 68.3439 188.278 70.3509 189.549 74.7837C191.061 80.0535 187.443 83.2319 182.823 84.5502L182.451 84.6564L179.001 72.629L178.806 72.6511C175.395 73.6243 173.891 76.0992 174.78 79.1991C175.438 81.493 176.794 82.4808 179.427 82.5346L180.164 85.1075ZM183.808 81.318C186.776 80.2029 188.117 77.976 187.361 75.3411C186.623 72.7682 184.247 71.5012 181.141 72.0185L183.808 81.318Z" fill="#FDAE18"/>
<path d="M176.023 107.169L175.952 103.687L184.019 97.4606L181.419 94.9003L175.777 95.0139L175.721 92.2734L192.358 91.9385L192.414 94.679L184.482 94.8387L192.567 102.288L192.642 105.964L185.961 99.3891L176.023 107.169Z" fill="#FDAE18"/>
<path d="M186.157 127.01L187.484 121.193L173.615 118.047L174.224 115.374L188.093 118.521L189.419 112.704L191.778 113.239L188.516 127.545L186.157 127.01Z" fill="#FDAE18"/>
</svg>
