<svg width="35" height="35" viewBox="0 0 35 35" fill="none" xmlns="http://www.w3.org/2000/svg">
<path d="M28.5141 4.37078C28.163 4.39632 27.8184 4.4787 27.4937 4.61468H27.4893C27.1776 4.73828 25.6956 5.36172 23.4424 6.30672L15.3684 9.70719C9.57477 12.1462 3.87962 14.5481 3.87962 14.5481L3.94743 14.5219C3.94743 14.5219 3.55477 14.6509 3.14462 14.932C2.89122 15.0933 2.67318 15.3042 2.50368 15.5522C2.30243 15.8475 2.14055 16.2992 2.20071 16.7662C2.29915 17.5559 2.81102 18.0295 3.17852 18.2909C3.5504 18.5556 3.90477 18.6792 3.90477 18.6792H3.91352L9.2543 20.4784C9.49383 21.2473 10.8818 25.8105 11.2154 26.8616C11.4123 27.4894 11.6037 27.882 11.8432 28.1817C11.9591 28.3348 12.0948 28.4628 12.2577 28.5656C12.3425 28.6149 12.4328 28.6538 12.5268 28.6816L12.4721 28.6684C12.4885 28.6728 12.5016 28.6859 12.5137 28.6903C12.5574 28.7023 12.587 28.7067 12.6427 28.7155C13.4882 28.9714 14.1674 28.4464 14.1674 28.4464L14.2057 28.4158L17.359 25.5447L22.644 29.5992L22.7643 29.6506C23.8657 30.1341 24.9813 29.865 25.5709 29.3903C26.1648 28.9123 26.3956 28.3009 26.3956 28.3009L26.4338 28.2025L30.5179 7.28015C30.6338 6.7639 30.6634 6.28047 30.5354 5.81125C30.4034 5.33637 30.0987 4.92794 29.6812 4.66609C29.3305 4.45294 28.924 4.35005 28.5141 4.37078ZM28.4037 6.61297C28.3993 6.68187 28.4124 6.67422 28.3818 6.80656V6.81859L24.336 27.5233C24.3185 27.5528 24.289 27.6173 24.2081 27.6819C24.1227 27.7497 24.0549 27.7923 23.6995 27.6513L17.2354 22.6955L13.3307 26.2545L14.151 21.0155L24.7123 11.1717C25.1476 10.767 25.0021 10.6817 25.0021 10.6817C25.0327 10.1852 24.3448 10.5362 24.3448 10.5362L11.0273 18.7864L11.0229 18.7645L4.63977 16.6153V16.6109L4.62337 16.6077C4.63456 16.6039 4.64551 16.5996 4.65618 16.5945L4.69118 16.577L4.72508 16.565C4.72508 16.565 10.4246 14.1631 16.2182 11.7241C19.1188 10.5023 22.0413 9.27187 24.289 8.3225C26.5366 7.37859 28.1981 6.68625 28.2921 6.64906C28.3818 6.61406 28.3391 6.61406 28.4037 6.61406V6.61297Z" fill="white"/>
</svg>
